<?xml version="1.0" standalone="no"?>
<!DOCTYPE svg PUBLIC "-//W3C//DTD SVG 20010904//EN"
 "http://www.w3.org/TR/2001/REC-SVG-20010904/DTD/svg10.dtd">
<svg version="1.0" xmlns="http://www.w3.org/2000/svg"
 width="276.000000pt" height="276.000000pt" viewBox="0 0 276.000000 276.000000"
 preserveAspectRatio="xMidYMid meet">
<metadata>
Created by potrace 1.11, written by Peter Selinger 2001-2013
</metadata>
<g transform="translate(0.000000,276.000000) scale(0.100000,-0.100000)"
fill="#000000" stroke="none">
<path d="M1382 2449 c0 -38 3 -71 6 -73 4 -2 38 -6 75 -7 244 -9 461 -122 560
-292 81 -138 99 -237 102 -547 1 -243 -6 -317 -38 -395 -6 -16 -12 -32 -12
-35 0 -13 -85 -139 -120 -178 -21 -23 -71 -64 -111 -91 -130 -87 -255 -121
-429 -117 -240 6 -405 110 -407 254 0 99 53 149 168 158 233 18 347 137 346
359 -2 231 -183 373 -418 329 -212 -39 -315 -263 -187 -404 92 -103 270 -65
314 67 17 52 5 128 -26 169 l-26 34 23 0 c33 -1 96 -25 120 -47 53 -48 73
-159 43 -243 -30 -84 -69 -108 -195 -120 -50 -5 -108 -17 -137 -30 -186 -80
-226 -335 -79 -498 21 -22 58 -54 84 -71 45 -29 182 -86 182 -76 0 2 10 1 23
-4 54 -21 248 -30 317 -16 14 3 41 7 60 10 20 3 65 14 100 26 209 68 393 229
479 421 64 143 66 155 66 488 0 289 -1 310 -24 395 -99 378 -362 577 -792 599
l-66 4 -1 -69z m-291 -896 c9 -24 7 -30 -11 -45 -28 -23 -36 -22 -60 2 -30 30
-10 70 38 70 15 0 26 -9 33 -27z"/>
<path d="M1167 2144 c-1 -1 -31 -4 -67 -8 -283 -27 -523 -208 -584 -441 -21
-82 -22 -733 -1 -842 52 -269 225 -464 490 -552 110 -36 346 -70 372 -52 10 6
12 126 3 134 -3 3 -45 7 -95 11 -329 22 -548 180 -621 446 -15 57 -18 112 -18
435 0 366 0 371 24 430 47 122 191 230 364 275 69 18 242 22 304 7 97 -24 171
-56 238 -103 66 -47 99 -85 131 -154 30 -66 36 -116 35 -303 -1 -157 -2 -170
-26 -223 -48 -105 -186 -202 -292 -206 l-34 -1 0 -73 0 -74 48 6 c151 17 290
101 378 229 11 17 31 57 44 90 21 55 23 78 24 255 2 217 -7 278 -55 377 -95
197 -334 326 -622 337 -21 0 -39 0 -40 0z"/>
</g>
</svg>
