<!--?xml version="1.0" encoding="utf-8"?-->
<!-- Generator: Adobe Illustrator 21.0.0, SVG Export Plug-In . SVG Version: 6.00 Build 0)  -->
<svg version="1.1" id="Layer_1" xmlns="http://www.w3.org/2000/svg" xmlns:xlink="http://www.w3.org/1999/xlink" x="0px" y="0px" viewBox="0 0 219 219" style="" xml:space="preserve">
<style type="text/css">
	.st0{fill:#FFFFFF;}
	.st1{fill:none;stroke:#000000;stroke-width:10.52;stroke-linejoin:bevel;}
</style>
<title>font case</title>
<path class="st0 JzweGsls_0" d="M0,109.5A109.5,109.5 0,1,1 219,109.5A109.5,109.5 0,1,1 0,109.5"></path>
<path class="st1 JzweGsls_1" d="M76.1,97.8A8.7,8.7 0,1,1 93.5,97.8A8.7,8.7 0,1,1 76.1,97.8"></path>
<path class="st1 JzweGsls_2" d="M110,143.3c16.6,0,31.5-13.4,31.5-29.2V96.4c0-30.2-29.9-38.2-46.1-38.2c-21.6,0-46.1,13.4-46.1,37V138
	c0,16.4,8.7,50.5,60.1,50.5"></path>
<path class="st1 JzweGsls_3" d="M76.1,96.5c0-18.8,38.4-21.6,38.4,5.1c0,13.9-7.1,21.5-21,21.5c-10.1,0-17.4,6.6-17.4,16.8
	c0,16,17.9,24.6,37.9,24.6c34.5,0,55.8-26.6,55.8-51.2V87.4c0-20.7-9-56.8-60.4-56.8"></path>
<style data-made-with="vivus-instant">.JzweGsls_0{stroke-dasharray:689 691;stroke-dashoffset:690;animation:JzweGsls_draw 8000ms ease 0ms forwards;}.JzweGsls_1{stroke-dasharray:55 57;stroke-dashoffset:56;animation:JzweGsls_draw 8000ms ease 0ms forwards;}.JzweGsls_2{stroke-dasharray:330 332;stroke-dashoffset:331;animation:JzweGsls_draw 8000ms ease 0ms forwards;}.JzweGsls_3{stroke-dasharray:374 376;stroke-dashoffset:375;animation:JzweGsls_draw 8000ms ease 0ms forwards;}@keyframes JzweGsls_draw{100%{stroke-dashoffset:0;}}@keyframes JzweGsls_fade{0%{stroke-opacity:1;}96.72131147540983%{stroke-opacity:1;}100%{stroke-opacity:0;}}</style></svg>
